<svg width="301" height="93" viewBox="0 0 301 93" fill="none" xmlns="http://www.w3.org/2000/svg">
<path d="M24.8487 26.5723V38.3463H40.7387V46.6743H24.8487V64.766H14V18.2763H43.9295V26.5723H24.8487Z" fill="#D87188"/>
<path d="M76.5522 31.6776V64.766H70.4259C69.1922 64.766 68.3838 64.2129 68.0009 63.1068L67.4266 61.1923C66.7885 61.8092 66.129 62.3729 65.4483 62.8834C64.7676 63.3727 64.0337 63.7981 63.2467 64.1597C62.4809 64.5001 61.6407 64.766 60.726 64.9574C59.8326 65.1701 58.8541 65.2765 57.7905 65.2765C55.9824 65.2765 54.3763 64.9681 52.9724 64.3512C51.5897 63.713 50.4198 62.8302 49.4625 61.7028C48.5053 60.5754 47.782 59.2459 47.2928 57.7143C46.8035 56.1828 46.5589 54.5023 46.5589 52.6729V31.6776H56.4503V52.6729C56.4503 54.3108 56.8226 55.5765 57.5671 56.4699C58.3116 57.3634 59.4071 57.8101 60.8536 57.8101C61.9385 57.8101 62.9489 57.5867 63.8848 57.14C64.8421 56.672 65.7674 56.0445 66.6608 55.2575V31.6776H76.5522Z" fill="#D87188"/>
<path d="M95.1106 65.2765C93.5365 65.2765 92.1432 65.0531 90.9307 64.6064C89.7395 64.1385 88.7291 63.4897 87.8995 62.6601C87.0911 61.8092 86.4742 60.7881 86.0488 59.5969C85.6234 58.4057 85.4106 57.0762 85.4106 55.6084V38.5059H82.6028C82.0922 38.5059 81.6562 38.3463 81.2945 38.0272C80.9329 37.6869 80.7521 37.1976 80.7521 36.5595V32.6986L86.0169 31.6776L87.9633 23.6049C88.2185 22.5839 88.9418 22.0733 90.133 22.0733H95.3021V31.7414H103.502V38.5059H95.3021V54.9384C95.3021 55.7042 95.4829 56.3423 95.8445 56.8528C96.2274 57.3421 96.7698 57.5867 97.4718 57.5867C97.8334 57.5867 98.1312 57.5548 98.3652 57.491C98.6205 57.4059 98.8332 57.3208 99.0034 57.2357C99.1948 57.1294 99.365 57.0443 99.5139 56.9805C99.6841 56.8954 99.8755 56.8528 100.088 56.8528C100.386 56.8528 100.62 56.9273 100.79 57.0762C100.982 57.2038 101.173 57.4165 101.365 57.7143L104.364 62.4048C103.088 63.362 101.652 64.0853 100.056 64.5745C98.4609 65.0425 96.8124 65.2765 95.1106 65.2765Z" fill="#D87188"/>
<path d="M137.439 31.6776V64.766H131.312C130.079 64.766 129.27 64.2129 128.888 63.1068L128.313 61.1923C127.675 61.8092 127.016 62.3729 126.335 62.8834C125.654 63.3727 124.92 63.7981 124.133 64.1597C123.367 64.5001 122.527 64.766 121.613 64.9574C120.719 65.1701 119.741 65.2765 118.677 65.2765C116.869 65.2765 115.263 64.9681 113.859 64.3512C112.476 63.713 111.306 62.8302 110.349 61.7028C109.392 60.5754 108.669 59.2459 108.179 57.7143C107.69 56.1828 107.445 54.5023 107.445 52.6729V31.6776H117.337V52.6729C117.337 54.3108 117.709 55.5765 118.454 56.4699C119.198 57.3634 120.294 57.8101 121.74 57.8101C122.825 57.8101 123.835 57.5867 124.771 57.14C125.729 56.672 126.654 56.0445 127.547 55.2575V31.6776H137.439Z" fill="#D87188"/>
<path d="M153.413 36.7828C154.434 34.996 155.604 33.5921 156.923 32.571C158.263 31.55 159.794 31.0394 161.517 31.0394C163.006 31.0394 164.219 31.3904 165.155 32.0924L164.517 39.3674C164.41 39.8353 164.229 40.1544 163.974 40.3246C163.74 40.4948 163.41 40.5799 162.985 40.5799C162.815 40.5799 162.591 40.5692 162.315 40.548C162.038 40.5267 161.751 40.5054 161.453 40.4841C161.156 40.4416 160.847 40.4097 160.528 40.3884C160.23 40.3459 159.954 40.3246 159.698 40.3246C158.252 40.3246 157.093 40.7075 156.221 41.4733C155.37 42.2391 154.646 43.3027 154.051 44.6641V64.766H144.159V31.6776H150.03C150.52 31.6776 150.924 31.7201 151.243 31.8052C151.583 31.8903 151.86 32.0286 152.073 32.22C152.307 32.3902 152.477 32.6242 152.583 32.922C152.711 33.2198 152.817 33.5814 152.902 34.0069L153.413 36.7828Z" fill="#D87188"/>
<path d="M188.546 44.2493C188.546 43.4622 188.44 42.6964 188.227 41.9519C188.036 41.2074 187.706 40.548 187.238 39.9736C186.791 39.378 186.196 38.8994 185.451 38.5378C184.707 38.1761 183.802 37.9953 182.739 37.9953C180.867 37.9953 179.399 38.5378 178.336 39.6226C177.272 40.6862 176.57 42.2284 176.23 44.2493H188.546ZM176.102 49.9927C176.421 52.758 177.261 54.7682 178.623 56.0232C179.984 57.257 181.739 57.8739 183.888 57.8739C185.036 57.8739 186.025 57.7356 186.855 57.4591C187.685 57.1826 188.418 56.8741 189.057 56.5338C189.716 56.1934 190.312 55.885 190.843 55.6084C191.397 55.3319 191.971 55.1936 192.566 55.1936C193.354 55.1936 193.949 55.4808 194.353 56.0551L197.225 59.5969C196.204 60.7669 195.098 61.7241 193.907 62.4686C192.737 63.1919 191.524 63.7662 190.269 64.1916C189.035 64.5958 187.791 64.8723 186.536 65.0212C185.302 65.1914 184.122 65.2765 182.994 65.2765C180.676 65.2765 178.495 64.9042 176.453 64.1597C174.432 63.3939 172.656 62.2665 171.124 60.7775C169.614 59.2885 168.412 57.4378 167.519 55.2255C166.647 53.0133 166.211 50.4394 166.211 47.5039C166.211 45.2916 166.583 43.1963 167.327 41.218C168.093 39.2397 169.178 37.5061 170.582 36.017C172.007 34.528 173.72 33.3474 175.719 32.4753C177.74 31.6031 180.016 31.1671 182.547 31.1671C184.738 31.1671 186.738 31.5074 188.546 32.1881C190.375 32.8688 191.939 33.858 193.237 35.1555C194.555 36.4531 195.576 38.0485 196.3 39.9417C197.044 41.8136 197.416 43.9408 197.416 46.3233C197.416 47.0678 197.385 47.674 197.321 48.142C197.257 48.61 197.14 48.9822 196.97 49.2588C196.8 49.5353 196.566 49.7268 196.268 49.8331C195.991 49.9395 195.63 49.9927 195.183 49.9927H176.102Z" fill="#D87188"/>
<path d="M214.364 26.5723V38.3463H230.254V46.6743H214.364V64.766H203.515V18.2763H233.444V26.5723H214.364Z" fill="#371F1C"/>
<path d="M247.905 17V64.766H238.013V17H247.905Z" fill="#371F1C"/>
<path d="M286.019 31.6776L268.343 73.3492C268.045 74.0086 267.683 74.4872 267.258 74.785C266.832 75.1041 266.152 75.2636 265.216 75.2636H257.813L264.195 61.8624L250.985 31.6776H259.727C260.493 31.6776 261.078 31.8478 261.482 32.1881C261.908 32.5285 262.216 32.9326 262.408 33.4006L267.832 47.6634C268.343 48.961 268.757 50.2905 269.076 51.6519C269.31 50.9712 269.544 50.2905 269.778 49.6098C270.012 48.9291 270.257 48.259 270.512 47.5996L275.426 33.4006C275.618 32.9114 275.958 32.5072 276.447 32.1881C276.936 31.8478 277.468 31.6776 278.042 31.6776H286.019Z" fill="#371F1C"/>
</svg>
