<svg width="369" height="280" viewBox="0 0 369 280" fill="none" xmlns="http://www.w3.org/2000/svg">
<g clip-path="url(#clip0_2_216)">
<path d="M61.66 134.76C61.93 124.14 63.75 113.78 66.86 103.64C70.86 90.58 76.85 78.5 84.9 67.46C93.41 55.8 103.68 45.96 115.65 37.86C127.12 30.1 139.54 24.43 152.94 20.94C166.91 17.3 181.08 16.25 195.47 17.5C210.05 18.77 223.9 22.64 237.07 28.9C248.1 34.15 258.06 41 267.08 49.26C276.98 58.33 285.17 68.74 291.63 80.48C298.95 93.78 303.66 107.99 305.61 123.08C306.11 126.96 306.7 130.82 306.59 134.74C306.38 134.86 306.19 135.04 305.96 135.1C292.48 138.77 279.01 142.47 265.51 146.07C262.18 146.96 259.08 148.46 255.53 149.75C255.7 148.95 255.77 148.56 255.87 148.18C259.35 134.14 258.77 120.27 253.71 106.71C252.64 103.83 252.48 101.34 253.23 98.38C255.29 90.29 252.98 85.99 245.19 83.37C242.48 82.46 240.99 80.63 239.42 78.57C235.43 73.33 230.9 69.25 223.57 71.96C222.56 72.33 221.79 71.74 220.99 71.34C216.26 68.99 211.28 67.43 206.07 66.61C193.66 64.67 181.18 65.02 168.71 65.8C162.8 66.17 156.98 67.2 151.46 69.52C148.22 70.88 145.11 72.89 141.34 71.15C140.79 70.9 140.02 71.05 139.36 71.11C134.77 71.55 131.8 74.62 129.37 77.97C127.21 80.95 124.73 82.92 121.21 84C117.11 85.27 114.81 88.23 114.44 92.65C114.21 95.38 114.76 97.96 115.61 100.48C116.1 101.94 115.94 103.13 115.36 104.52C110.93 115.1 109.52 126.13 110.53 137.52C110.89 141.55 111.68 145.51 112.68 149.76C109.21 148.39 106.19 147.03 102.99 146.15C89.21 142.36 75.43 138.56 61.66 134.77V134.76Z" fill="#D87188"/>
<path d="M61.66 134.76C75.44 138.56 89.21 142.36 102.99 146.14C106.19 147.02 109.22 148.39 112.68 149.75C111.68 145.5 110.89 141.54 110.53 137.51C109.52 126.12 110.93 115.09 115.36 104.51C115.94 103.13 116.1 101.93 115.61 100.47C114.76 97.95 114.21 95.37 114.44 92.64C114.81 88.22 117.11 85.26 121.21 83.99C124.73 82.9 127.2 80.94 129.37 77.96C131.8 74.61 134.77 71.54 139.36 71.1C140.02 71.04 140.79 70.89 141.34 71.14C145.11 72.88 148.22 70.87 151.46 69.51C156.98 67.19 162.8 66.16 168.71 65.79C181.18 65.02 193.66 64.66 206.07 66.6C211.28 67.42 216.26 68.98 220.99 71.33C221.79 71.73 222.56 72.32 223.57 71.95C230.9 69.24 235.43 73.32 239.42 78.56C240.99 80.62 242.48 82.45 245.19 83.36C252.99 85.98 255.3 90.28 253.23 98.37C252.47 101.33 252.63 103.82 253.71 106.7C258.77 120.26 259.35 134.13 255.87 148.17C255.77 148.55 255.7 148.94 255.53 149.74C259.07 148.45 262.17 146.95 265.51 146.06C279.01 142.46 292.48 138.76 305.96 135.09C306.18 135.03 306.38 134.85 306.59 134.73C315.58 132.36 324.58 130.01 333.57 127.62C339.35 126.08 345.13 124.51 350.89 122.9C352.35 122.49 353.07 122.52 353.33 124.4C354.46 132.64 355.11 140.76 351.36 148.62C348.36 154.91 344.03 159.88 337.88 163.17C336.53 163.89 335.97 164.7 335.97 166.25C335.89 182.63 323.25 195.08 309.49 196.44C305.67 196.82 303.62 197.9 302.32 202.31C298.28 216.03 288.16 223.72 274.6 227.23C274.07 227.01 273.58 226.99 273.22 227.54C272.2 227.65 271.18 227.77 270.16 227.88C268.04 227.78 265.9 228.1 263.79 227.62C263.31 227.51 262.81 227.64 262.44 228.07C259.21 231.77 255.16 234.6 251.79 238.13C249.88 240.13 247.96 240.59 245.38 239.68C242.25 238.58 239.01 237.84 235.86 236.79C234.25 236.25 233.59 236.42 233.63 238.3C233.72 242.7 233.67 247.1 233.68 251.5C230.54 253.39 227.07 254.44 223.63 255.58C223.01 255.32 222.94 254.65 223.26 254.36C225.04 252.7 225 250.52 225.12 248.38C225.45 242.41 225.59 236.43 225.4 230.46C225.11 220.92 224.7 211.39 222.64 202.02C222.61 199.25 221.53 196.63 221.2 193.27C223.22 195.32 224.55 197.08 225.64 199.03C229.68 206.2 231.31 214.08 232.42 222.11C233.06 226.71 233.34 226.95 238.06 227.68C240.2 228.84 242.56 229.39 244.87 230.03C246.53 230.49 251.85 226.72 252.01 224.99C252.04 224.6 251.88 224.17 251.74 223.79C248.15 214.44 243.37 205.71 237.75 197.44C235.71 193.71 233.11 190.36 230.79 186.82C229.69 185.13 228.67 185.17 227.15 186.24C221.83 189.99 215.79 192.02 209.53 193.53C200.88 195.62 192.08 195.64 183.25 195.7C168.19 195.81 153.49 194.49 140.45 185.88C139.28 185.11 138.55 185.32 137.78 186.44C135.73 189.45 133.48 192.33 131.72 195.54C126.42 203.2 121.84 211.26 118.11 219.79C115.53 225.68 115.65 225.73 120.77 229.64C121.28 230.03 121.71 230.57 122.52 230.3C125.89 229.19 129.44 228.59 132.62 226.92C134.62 226.87 135.55 225.9 135.71 223.84C135.9 221.36 136.3 218.88 136.76 216.44C138.07 209.45 140.01 202.67 144.11 196.72C144.82 195.69 145.41 194.47 146.86 194.09C147.14 195.47 146.41 196.49 146.23 197.62C143.14 216.84 140.64 236.07 144.65 255.48C141.01 254.89 137.82 253.13 134.58 251.52C134.58 247.12 134.54 242.73 134.63 238.33C134.67 236.47 134.02 236.28 132.4 236.8C128.78 237.97 125.09 238.93 121.44 240.04C119.95 240.49 118.77 240.26 117.61 239.15C113.77 235.5 109.85 231.93 106 228.29C105.54 227.85 105.09 227.49 104.5 227.64C102.38 228.2 100.24 227.8 98.11 227.86C97.09 227.75 96.07 227.64 95.05 227.53C94.69 227 94.2 227.03 93.67 227.22C80.22 223.71 70.12 216.13 66.02 202.51C64.71 198.17 62.79 196.78 58.75 196.39C44.96 195.06 32.46 182.66 32.32 166.42C32.3 164.62 31.55 163.82 30.13 162.98C19.16 156.58 13.97 146.85 14 134.27C14 131.02 14.54 127.8 14.88 124.58C15.09 122.62 15.8 122.49 17.44 122.94C28.34 125.96 39.23 129 50.18 131.82C54.01 132.81 57.64 134.55 61.67 134.77L61.66 134.76ZM244.63 96.6C245.19 93.58 244.47 92.21 241.17 91.07C237.46 89.79 234.73 87.44 232.69 84.17C232.12 83.26 231.52 82.36 230.89 81.49C228.98 78.89 227.18 78.39 224.21 79.7C220.87 81.17 219.06 83.97 217.69 87.18C217.13 88.49 217.14 90.04 216.02 91.39C215.5 90.29 215.09 89.42 214.68 88.55C214.43 86.4 214.27 84.24 214.56 82.08C215.83 78.93 215.83 78.91 212.65 77.79C208.96 76.48 205.19 75.5 201.28 75.06C193.56 74.19 185.82 74.76 178.09 74.6C170.25 74.44 162.53 75.07 155.12 78.02C152.31 79.14 152.16 79.15 153.64 82.09L153.55 88.57C152.85 89.31 153.06 90.64 152.03 91.21C151.32 90.52 151.39 89.72 151.17 89.03C150.09 85.74 148.66 82.69 145.67 80.64C141.92 78.07 139.23 78.43 136.86 82.23C134.24 86.44 131.18 89.9 126.2 91.46C123.48 92.31 122.92 94.18 123.7 97.06C125.44 103.85 129.93 108.24 136.06 111.19C136.99 111.86 137.88 112.64 139.15 112.55C139.51 112.63 139.64 112.43 139.66 112.11C142.99 105.18 143.51 97.82 142.88 89.83C145.92 93.04 147.34 96.58 148.08 100.43C149.29 106.71 148.35 112.86 146.75 118.95C145.99 121.857 144.117 123.04 141.13 122.5C140.97 122.47 140.8 122.49 140.63 122.48C134.39 120.33 128.31 117.91 123.62 112.98C122.43 111.73 121.95 112.69 121.65 113.79C120.67 117.33 120.04 120.92 119.73 124.58C118.51 138.74 121.13 151.95 129.6 163.63C138.91 176.46 151.37 184.2 167.18 186.22C175.8 187.32 184.48 186.48 193.13 186.7C204.1 186.98 214.21 184.08 223.41 178.15C227.87 175.27 232.16 172.12 235.24 167.64C235.66 167.24 236.12 166.87 236.48 166.42C249.05 150.67 251.15 132.9 246.59 113.85C246.14 111.96 245.37 112.32 244.28 113.37C238.77 118.69 231.93 121.33 224.65 123.13C223.37 123.44 222.76 123.16 222.41 122C220.01 114.2 218.46 106.33 220.68 98.21C221.51 95.18 222.88 92.42 225.54 89.59C224.98 93.49 224.97 96.68 225.36 99.89C225.75 103.12 226.28 106.32 227.3 109.41C228.58 113.28 228.67 113.27 232.17 111.17C233.43 111.15 234.32 110.3 235.2 109.64C239.71 106.3 243.57 102.45 244.64 96.61L244.63 96.6ZM55.17 169.05C51.57 168.41 47.93 167.92 44.38 167.08C41.89 166.5 41.76 167.56 42.12 169.47C43.66 177.59 48.31 183.12 56.01 186.07C59.82 187.53 63.65 188.94 67.51 190.23C72.87 192.01 78.01 194.42 83.51 195.8C83.88 195.93 84.24 196.06 84.61 196.19C84.86 196.57 85.21 196.68 85.64 196.55C91.82 198.89 98 201.23 104.18 203.56C104.15 203.86 104.12 204.15 104.1 204.45C99.48 203.53 94.86 202.6 90.16 202.15C85.64 200.75 80.93 200.37 76.3 199.55C74.48 199.23 75.38 200.77 75.66 201.37C79.2 208.96 85.15 213.7 93.15 215.96C96.22 217.18 99.44 217.64 102.69 217.36C107.11 216.98 110.69 215.55 112.48 210.74C113.91 206.89 116.2 203.32 118.35 199.77C121.73 194.16 125.31 188.67 128.81 183.13C128.94 182.95 129.06 182.77 129.19 182.58L129.17 182.6C129.89 181.35 132.6 180.39 130.76 178.73C126.18 174.59 123.14 169.09 118.25 165.23C112.95 161.06 107.54 157.28 100.9 155.49C76.62 148.97 52.37 142.36 28.11 135.81C26.8 135.46 25.13 134.26 24.18 135.38C23.19 136.54 23.88 138.39 24.4 139.91C24.43 139.99 24.48 140.06 24.52 140.13C25.82 148.24 30.7 153.34 38.17 156.17C44.62 158.62 51.09 161.05 57.63 163.25C62.82 165 67.8 167.33 73.15 168.61C73.9 169.14 74.74 169.45 75.66 169.56C75.86 170.01 76.23 170.1 76.67 170.02C79.38 171.02 82.09 172.02 84.8 173.02C84.82 173.77 84.03 173.69 83.7 174.08C82.99 173.96 82.29 173.85 81.58 173.73C81.02 173.15 80.35 173.15 79.64 173.35C78.54 173.17 77.44 173 76.35 172.82C75.88 172.32 75.34 172.12 74.7 172.51C74.25 172.45 73.81 172.38 73.36 172.32C72.86 171.82 72.3 171.63 71.63 171.95C70.35 171.75 69.08 171.56 67.8 171.36C67.53 170.94 67.21 170.7 66.73 171.08C66.1 170.99 65.47 170.91 64.84 170.82C64.2 170.18 63.45 170.11 62.63 170.38C62.12 170.3 61.61 170.22 61.1 170.14C60.81 169.85 60.5 169.77 60.14 170.02C59.63 169.9 59.11 169.78 58.6 169.66C58.35 169.27 58.05 169.23 57.71 169.54C57.25 169.48 56.79 169.42 56.33 169.36C56.04 168.95 55.7 168.7 55.19 169.05H55.17ZM315.67 168.7C315.29 168.78 314.91 168.85 314.53 168.93C312.36 169.11 310.22 169.42 308.12 170C307.76 169.76 307.44 169.84 307.16 170.14C306.49 170.26 305.81 170.38 305.14 170.5C304.48 170.15 303.91 170.3 303.42 170.84C302.96 170.91 302.5 170.97 302.04 171.04C301.57 170.66 301.21 170.91 300.87 171.25C299.46 171.49 298.04 171.74 296.63 171.98C295.96 171.64 295.39 171.82 294.9 172.34C294.45 172.41 293.99 172.47 293.54 172.54C292.91 172.16 292.38 172.31 291.92 172.84L288.62 173.39C287.9 173.14 287.24 173.2 286.67 173.75C286.16 173.83 285.64 173.92 285.13 174C284.58 173.65 283.63 173.99 283.43 173.03C287.48 171.53 291.53 170.04 295.59 168.54C307.71 164.18 319.93 160.08 331.91 155.36C338.55 152.74 342.67 147.45 343.71 140.13C344.26 139.15 344.24 138.06 344.39 136.98C344.63 135.17 343.84 134.73 342.24 135.22C341.84 135.34 341.44 135.44 341.04 135.55C317.98 141.77 294.92 147.99 271.86 154.2C264.84 156.09 258.08 158.44 252.21 163.03C246.42 167.56 242.75 173.98 237.32 178.79C236.5 179.51 236.85 180.07 237.55 180.6C238.17 181.57 238.76 182.56 239.42 183.51C245.79 192.73 251.86 202.14 256.6 212.32C257.65 214.59 259.17 215.85 261.43 216.53C266.05 217.92 270.6 217.64 275.09 215.98C278.55 215.45 281.37 213.53 284.17 211.65C287.96 209.09 290.72 205.59 292.58 201.42C292.92 200.66 293.68 199.19 291.7 199.56C286.99 200.44 282.2 200.87 277.58 202.23C275.06 202.35 272.6 202.91 270.14 203.44C269.6 203.18 269.1 203.26 268.67 203.67C268.16 203.74 267.66 203.81 267.15 203.89C266.57 203.59 265.62 204.01 265.41 202.99C268.31 201.93 271.2 200.87 274.1 199.81C274.63 199.94 274.99 199.68 275.3 199.3C277.4 198.53 279.49 197.75 281.59 196.98C281.84 196.96 282.1 197.01 282.33 196.92C292.65 193.17 302.98 189.43 313.28 185.65C315.89 184.69 318.17 183.17 320.12 181.17C323.54 177.66 325.71 173.53 326.19 168.62C326.25 167.99 326.94 166.5 325.08 167.07C324.72 166.8 324.43 166.87 324.19 167.24C323.46 167.19 322.73 167.14 322.08 167.57C321.41 167.18 320.87 167.39 320.4 167.94C319.11 168.01 317.78 167.86 316.59 168.56C316.24 168.32 315.93 168.39 315.67 168.71V168.7Z" fill="#371F1C"/>
<path d="M222.62 202.05C224.68 211.42 225.09 220.96 225.38 230.49C225.56 236.47 225.43 242.44 225.1 248.41C224.98 250.55 225.02 252.73 223.24 254.39C222.92 254.69 222.99 255.35 223.61 255.61C223.52 256.04 223.33 256.37 222.85 256.48C215.61 258.14 208.43 260.01 201.05 261.11C192.95 262.32 184.83 261.95 176.72 262.02C171.65 262.06 166.72 260.75 161.69 260.38C161.5 260.37 161.32 260.08 161.14 259.92C161.71 259.02 161.7 257.99 161.58 257.01C160.82 250.89 160.97 244.78 161.58 238.66C162.39 230.64 164.48 223 169.12 216.41C174.77 208.37 182.75 203.53 192.37 201.51C198.3 200.26 204.23 199.76 210.36 200.38C214.48 200.8 218.44 202.22 222.61 202.04L222.62 202.05Z" fill="#EAB9AB"/>
<path d="M222.62 202.05C218.44 202.24 214.48 200.81 210.37 200.39C204.24 199.76 198.31 200.27 192.38 201.52C182.76 203.55 174.78 208.38 169.13 216.42C164.49 223.01 162.4 230.66 161.59 238.67C160.97 244.8 160.83 250.9 161.59 257.02C161.71 258 161.73 259.02 161.15 259.93C160.83 259.9 160.5 259.87 160.18 259.84C159.73 258.67 158.8 259.07 157.96 259.18C153.63 259.04 149.73 257.03 145.53 256.31C145.2 256.25 144.94 255.78 144.64 255.5C140.64 236.09 143.13 216.86 146.22 197.64C146.4 196.51 147.14 195.48 146.85 194.11C145.39 194.49 144.8 195.71 144.1 196.74C140 202.69 138.06 209.47 136.75 216.46C136.29 218.91 135.89 221.38 135.7 223.86C135.54 225.92 134.61 226.89 132.61 226.94C134.43 218.91 135.07 210.77 134.56 202.56C134.4 200.02 134.07 197.32 131.71 195.56C133.47 192.35 135.71 189.47 137.77 186.46C138.54 185.34 139.27 185.13 140.44 185.9C153.48 194.51 168.17 195.83 183.24 195.72C192.06 195.66 200.86 195.63 209.52 193.55C215.79 192.04 221.82 190.01 227.14 186.26C228.65 185.19 229.67 185.15 230.78 186.84C233.09 190.38 235.7 193.74 237.74 197.46C237.11 197.58 236.87 197.97 236.58 198.56C235.5 200.72 235.65 203.08 235.29 205.34C234.39 210.99 233.95 216.57 236.24 222.16C236.94 223.88 238.18 225.63 238.06 227.7C233.34 226.98 233.06 226.73 232.42 222.13C231.3 214.1 229.67 206.22 225.64 199.05C224.54 197.1 223.22 195.34 221.2 193.29C221.53 196.65 222.61 199.27 222.64 202.04L222.62 202.05Z" fill="#D79B87"/>
<path d="M233.66 251.54C233.66 247.14 233.7 242.74 233.61 238.34C233.57 236.46 234.23 236.29 235.84 236.83C238.98 237.88 242.23 238.62 245.36 239.72C247.94 240.63 249.86 240.16 251.77 238.17C255.14 234.64 259.19 231.8 262.42 228.11C262.79 227.68 263.29 227.55 263.77 227.66C265.88 228.13 268.02 227.81 270.14 227.92C265.91 230.14 262.94 233.93 259.16 236.73C251.59 242.33 243.7 247.36 235.08 251.19C234.64 251.39 234.13 251.43 233.66 251.55V251.54Z" fill="#D87188"/>
<path d="M98.09 227.89C100.22 227.83 102.36 228.23 104.48 227.67C105.07 227.51 105.52 227.88 105.98 228.32C109.83 231.96 113.75 235.53 117.59 239.18C118.75 240.28 119.94 240.51 121.42 240.07C125.07 238.97 128.76 238 132.38 236.83C134 236.31 134.65 236.49 134.61 238.36C134.52 242.75 134.57 247.15 134.56 251.55C129.78 250.21 125.69 247.48 121.48 245.03C114.43 240.92 107.82 236.2 101.89 230.56C100.76 229.48 99.47 228.63 98.09 227.9V227.89Z" fill="#D87188"/>
<path d="M157.96 259.19C158.8 259.08 159.72 258.68 160.18 259.85C159.31 260.07 158.47 260.21 157.96 259.19Z" fill="#EAB9AB"/>
<path d="M93.65 227.25C94.18 227.05 94.67 227.02 95.03 227.56C94.44 228.05 93.97 228.01 93.65 227.25Z" fill="#D87188"/>
<path d="M273.21 227.57C273.57 227.02 274.06 227.04 274.59 227.26C274.28 228.02 273.8 228.05 273.21 227.57Z" fill="#D87188"/>
<path d="M214.56 82.08C214.27 84.24 214.43 86.4 214.68 88.55C213.31 89.77 214.83 91.01 214.68 92.26C214.6 92.95 214.93 93.85 215.8 93.97C216.75 94.1 216.89 93.24 217.2 92.54C218.85 88.86 220.49 85.24 224.54 83.37C227.41 82.04 230.18 82.97 231.08 86.11C231.3 86.89 231.76 87.39 232.23 87.96C233.65 89.72 234.78 91.77 237.11 92.56C235.92 92.74 236.07 93.67 236.1 94.47C236.31 100.4 234.84 105.93 232.15 111.17C228.65 113.27 228.56 113.28 227.28 109.41C226.26 106.32 225.72 103.13 225.34 99.89C224.95 96.68 224.96 93.49 225.52 89.59C222.87 92.42 221.49 95.18 220.66 98.21C218.44 106.33 219.99 114.2 222.39 122C222.75 123.16 223.36 123.45 224.63 123.13C231.91 121.34 238.75 118.69 244.26 113.37C245.35 112.32 246.11 111.96 246.57 113.85C251.13 132.9 249.03 150.67 236.46 166.42C236.1 166.87 235.64 167.23 235.22 167.64C233.98 167.03 232.81 167.23 231.73 168.01C228.75 170.16 225.1 170.42 221.77 171.57C219.3 172.42 216.72 172.86 214.19 173.47C211.22 174.19 208.28 174.77 205.25 174.95C206.67 173.44 208.3 172.13 209.46 170.36C215.25 161.52 212.2 149.49 202.58 143.81C194.6 139.09 185.91 138.48 176.97 139.87C173.42 140.42 170.02 141.59 166.88 143.35C158.89 147.83 152.54 156.72 157.89 168.75C157.7 169.01 157.5 169.33 157.14 169.01C155.17 167.27 153.39 165.38 152.02 163.09C151.15 161.63 150.15 160.1 148.1 160.05C148.15 159.5 148.5 159.22 148.94 158.92C151.17 157.44 151.18 156.39 149.32 154.48C148.26 153.39 146.68 153.58 145.63 152.62C146.08 150.73 144.48 149.22 144.65 147.38C146.64 147.45 148.64 147.69 150.61 147.57C156.97 147.21 162.25 142.55 163.52 136.32C164.07 133.64 163.76 133.25 161.12 133.23C159.79 133.23 158.45 133.3 157.13 133.18C155.29 133.01 154.11 133.37 153.45 135.44C152.82 137.41 150.98 138.18 148.85 138.16C146.91 138.14 145.16 137.35 144.67 135.62C144.09 133.55 142.9 133.07 141.12 133.02C140.94 129.51 141.53 125.96 140.62 122.49C140.79 122.49 140.96 122.48 141.12 122.51C144.107 123.05 145.98 121.867 146.74 118.96C148.34 112.87 149.28 106.72 148.07 100.44C147.33 96.59 145.91 93.05 142.87 89.84C143.5 97.83 142.98 105.19 139.65 112.12C139.48 112.27 139.31 112.41 139.14 112.56C137.87 112.65 136.98 111.88 136.05 111.2C136.54 109.62 135.04 108.87 134.52 107.71C132.35 102.83 132.14 97.68 132.11 92.48C132.39 91.19 134.26 91.55 134.48 90.22C134.83 88.13 136.44 86.87 137.61 85.3C140.23 81.81 143.2 82.8 146.43 85.2C148.33 86.61 149.58 88.53 150.18 90.9C150.5 92.18 150.95 93.58 152.59 94.42C152.54 93.27 152.87 92.51 153.35 91.7C153.87 90.83 154.77 89.68 153.55 88.57C153.58 86.41 153.61 84.25 153.64 82.09C154.13 82.01 154.66 82.02 155.09 81.82C161.64 78.72 168.7 78.38 175.73 78.14C182.22 77.92 188.73 77.91 195.22 78.14C201.09 78.36 206.93 79.13 212.41 81.5C213.1 81.8 213.76 82.15 214.55 82.07L214.56 82.08ZM209.19 133.18C204.03 133.18 203.55 133.9 205.39 138.86C207.9 145.64 215.61 149.28 223.04 147.18C229.05 145.48 233.26 140.75 233.69 135.36C233.82 133.79 233.45 133.02 231.71 133.15C229.97 133.27 228.22 133.24 226.48 133.16C225.08 133.09 224.22 133.37 223.75 134.94C223.07 137.18 221.26 138.15 218.94 138.12C216.68 138.09 215.11 136.98 214.47 134.85C214.05 133.46 213.3 133.02 211.94 133.16C211.04 133.26 210.11 133.18 209.2 133.18H209.19ZM226.42 161.43C229.44 162.3 231.61 160.55 233.78 159.06C235.76 157.69 235.63 156.01 233.57 154.77C232.37 154.05 231.1 153.24 229.77 152.98C226.26 152.3 222.69 151.87 219.47 154.13C216.98 155.88 216.87 158.26 219.55 159.59C221.67 160.65 223.75 162.42 226.42 161.43Z" fill="#EAB9AB"/>
<path d="M305.13 170.49C305.8 170.37 306.48 170.25 307.15 170.13C307.55 170.67 307.85 170.46 308.11 169.99C310.21 169.42 312.35 169.1 314.52 168.92C313.38 171.82 312.2 174.68 309.94 176.96C303.77 183.21 296.82 188.35 288.9 192.21C286.3 193.48 283.66 194.84 281.58 196.97C279.48 197.74 277.39 198.52 275.29 199.29C274.7 199.02 274.27 199.11 274.09 199.8C271.19 200.86 268.3 201.92 265.4 202.98C263.83 203.31 262.18 203.45 260.49 205.42C263.11 204.6 265.26 205.1 267.13 203.88C267.64 203.81 268.14 203.74 268.65 203.66C269.24 204.19 269.73 204.1 270.12 203.43C272.58 202.89 275.03 202.34 277.56 202.21C278.68 207.15 277.88 211.73 275.08 215.96C270.58 217.62 266.04 217.9 261.42 216.51C259.17 215.83 257.65 214.56 256.59 212.3C251.85 202.12 245.78 192.71 239.41 183.49C238.76 182.54 238.16 181.55 237.54 180.58C238.4 180.54 238.75 179.91 239.26 179.33C241.51 176.79 243.5 173.97 245.9 171.63C250.98 166.67 256.45 162.48 263.96 161.19C271.65 159.87 279.24 157.7 286.7 155.35C293.03 153.36 299.55 152.18 305.84 150.04C310.09 148.59 314.57 147.62 319.08 147.06C317.93 149.83 315.99 152.08 314.07 154.31C309.41 159.69 303.19 162.96 297.23 166.57C296.42 167.06 295.66 167.47 295.58 168.53C291.53 170.03 287.48 171.52 283.42 173.02C281.74 173.08 280.22 173.5 278.56 175.31C281.2 174.75 283.27 175.01 285.12 173.99C285.63 173.91 286.15 173.82 286.66 173.74C287.41 174.17 288.11 174.29 288.61 173.38C289.71 173.2 290.81 173.01 291.9 172.83C292.5 173.07 293.09 173.19 293.52 172.53C293.97 172.46 294.43 172.4 294.88 172.33C295.53 172.57 296.17 172.73 296.61 171.97C298.02 171.73 299.44 171.48 300.85 171.24C301.3 171.51 301.71 171.53 302.02 171.03C302.48 170.96 302.94 170.9 303.4 170.83C304.04 171.08 304.67 171.22 305.12 170.49H305.13Z" fill="#EAB9AB"/>
<path d="M67.77 171.36C69.05 171.56 70.32 171.75 71.6 171.95C72.04 172.72 72.68 172.56 73.33 172.32C73.78 172.38 74.22 172.45 74.67 172.51C75.11 173.18 75.7 173.07 76.32 172.82C77.42 173 78.52 173.17 79.61 173.35C80.09 174.31 80.79 174.18 81.55 173.73C82.26 173.85 82.96 173.96 83.67 174.08C85.29 174.79 86.98 175.09 88.99 174.96C87.88 173.19 86.17 173.46 84.77 173.03C82.06 172.03 79.35 171.03 76.64 170.03C76.53 169.37 76.38 168.82 75.63 169.57C74.72 169.46 73.88 169.15 73.12 168.62C73.16 167.54 72.21 167.18 71.55 166.89C67.84 165.23 64.5 162.99 61.23 160.63C56 156.87 51.78 152.21 48.62 146.6C51.42 146.88 54.03 147.88 56.72 148.6C61.81 149.96 66.88 151.36 71.95 152.76C77.21 154.22 82.51 155.57 87.72 157.21C95.02 159.52 102.72 160.3 109.88 163.1C113.07 164.35 115.92 166.15 118.61 168.27C122.01 170.94 124.12 174.74 127.11 177.75C128.5 179.15 129.18 180.7 129.16 182.62L129.18 182.6C128.95 182.66 128.72 182.73 128.49 182.79L128.8 183.14C125.3 188.68 121.72 194.17 118.34 199.78C116.2 203.33 113.9 206.89 112.47 210.75C110.69 215.56 107.1 216.99 102.68 217.37C99.43 217.65 96.21 217.2 93.14 215.97C93.27 214.99 92.24 214.63 91.85 213.95C89.69 210.17 90.19 206.15 90.14 202.15C94.84 202.6 99.46 203.53 104.08 204.45C105.07 205.14 106.1 205.26 107.35 204.8C106.44 203.64 105.35 203.47 104.17 203.57C97.99 201.23 91.81 198.89 85.63 196.56C85.51 195.81 85.32 195.25 84.6 196.2C84.23 196.07 83.87 195.94 83.5 195.81C83.82 194.29 82.54 194.07 81.64 193.58C76.81 190.94 72.04 188.23 67.55 184.98C65.31 183.35 63.62 181.13 61.31 179.74C57.65 177.55 56.18 173.9 54.39 170.42C54.03 169.72 54.7 169.64 55.18 169.52C55.55 169.47 55.93 169.43 56.3 169.38C56.76 169.44 57.22 169.5 57.68 169.56C57.92 170.03 58.2 170.16 58.57 169.68C59.08 169.8 59.6 169.92 60.11 170.04C60.38 170.5 60.68 170.69 61.07 170.16C61.58 170.24 62.09 170.32 62.6 170.4C63.17 171.38 64 171.04 64.81 170.84C65.44 170.93 66.07 171.01 66.7 171.1C66.97 171.53 67.34 171.56 67.77 171.38V171.36Z" fill="#EAB9AB"/>
<path d="M140.63 122.47C141.54 125.94 140.96 129.49 141.13 133C139.9 133.06 138.66 133.14 137.43 133.16C134.38 133.2 134.13 133.43 134.69 136.42C135.74 142.1 139.39 145.47 144.65 147.35C144.49 149.19 146.08 150.7 145.63 152.59C145.13 152.59 144.63 152.59 144.12 152.59C143.79 152.05 143.45 152.05 143.12 152.59C141.8 152.59 140.47 152.52 139.15 152.59C136.2 152.74 133.67 155.02 133.57 157.55C132.86 158.34 133.48 158.46 134.09 158.59L135.06 159.11C135.15 159.73 135.49 160.06 136.14 160.02C140.12 161.45 144.11 161.7 148.09 160.02C150.14 160.07 151.14 161.6 152.01 163.06C153.38 165.35 155.16 167.24 157.13 168.98C157.5 169.3 157.69 168.98 157.88 168.72C162.26 175.69 168.68 178.68 176.79 178.49C181.52 178.38 186.27 178.31 191 178.49C196.14 178.68 200.88 177.65 205.25 174.93C208.28 174.75 211.22 174.17 214.19 173.45C216.72 172.84 219.3 172.41 221.77 171.55C225.1 170.4 228.75 170.14 231.73 167.99C232.82 167.21 233.98 167.01 235.22 167.62C232.15 172.1 227.86 175.25 223.39 178.13C214.19 184.07 204.08 186.96 193.11 186.68C184.46 186.46 175.78 187.31 167.16 186.2C151.35 184.18 138.89 176.44 129.58 163.61C121.11 151.93 118.49 138.73 119.71 124.56C120.03 120.9 120.65 117.3 121.63 113.77C121.93 112.67 122.41 111.7 123.6 112.96C128.29 117.89 134.37 120.31 140.61 122.46L140.63 122.47Z" fill="#D79B87"/>
<path d="M129.16 182.6C129.18 180.68 128.5 179.13 127.11 177.73C124.11 174.72 122.01 170.92 118.61 168.25C115.92 166.14 113.07 164.33 109.88 163.08C102.72 160.28 95.02 159.5 87.72 157.19C82.51 155.54 77.22 154.19 71.95 152.74C66.88 151.33 61.8 149.94 56.72 148.58C54.03 147.86 51.42 146.86 48.62 146.58C47.93 145.9 47.01 145.79 46.14 145.56C41.97 144.47 37.81 143.38 33.64 142.3C30.61 141.51 27.65 140.44 24.51 140.13C24.47 140.06 24.42 139.99 24.39 139.91C23.88 138.4 23.18 136.55 24.17 135.38C25.12 134.27 26.79 135.46 28.1 135.81C52.37 142.36 76.62 148.97 100.89 155.49C107.53 157.27 112.94 161.05 118.24 165.23C123.14 169.09 126.18 174.58 130.75 178.73C132.59 180.4 129.88 181.36 129.16 182.6Z" fill="#E4CDC7"/>
<path d="M319.09 147.06C314.58 147.62 310.1 148.6 305.85 150.04C299.56 152.18 293.04 153.37 286.71 155.35C279.25 157.7 271.66 159.88 263.97 161.19C256.46 162.47 250.99 166.66 245.91 171.63C243.51 173.97 241.52 176.79 239.27 179.33C238.76 179.91 238.41 180.54 237.55 180.58C236.85 180.06 236.5 179.5 237.32 178.77C242.75 173.96 246.42 167.54 252.21 163.01C258.09 158.42 264.84 156.07 271.86 154.18C294.92 147.96 317.98 141.74 341.04 135.53C341.44 135.42 341.85 135.32 342.24 135.2C343.84 134.71 344.63 135.15 344.39 136.96C344.25 138.03 344.27 139.13 343.71 140.11C342.87 140.05 342.08 140.18 341.26 140.42C336.26 141.83 331.22 143.11 326.23 144.58C323.82 145.29 321.18 145.43 319.08 147.06H319.09Z" fill="#E4CDC7"/>
<path d="M319.09 147.06C321.19 145.43 323.83 145.3 326.24 144.58C331.22 143.1 336.27 141.83 341.27 140.42C342.09 140.19 342.88 140.06 343.72 140.11C342.68 147.43 338.57 152.72 331.92 155.34C319.94 160.06 307.72 164.16 295.6 168.52C295.67 167.46 296.43 167.06 297.25 166.56C303.21 162.95 309.43 159.68 314.09 154.3C316.02 152.08 317.95 149.83 319.1 147.05L319.09 147.06Z" fill="#D79B87"/>
<path d="M24.5 140.13C27.64 140.45 30.6 141.51 33.63 142.3C37.8 143.39 41.96 144.47 46.13 145.56C47 145.79 47.92 145.9 48.61 146.58C51.78 152.19 56 156.85 61.22 160.61C64.5 162.97 67.83 165.22 71.54 166.87C72.2 167.16 73.15 167.52 73.11 168.6C67.76 167.32 62.78 164.98 57.59 163.24C51.05 161.04 44.59 158.6 38.13 156.16C30.67 153.33 25.78 148.24 24.48 140.12L24.5 140.13Z" fill="#D79B87"/>
<path d="M131.71 195.57C134.06 197.33 134.4 200.04 134.56 202.57C135.07 210.77 134.42 218.91 132.61 226.95C129.43 228.63 125.88 229.22 122.51 230.33C121.71 230.6 121.28 230.06 120.76 229.67C115.64 225.76 115.52 225.71 118.1 219.82C121.83 211.3 126.42 203.23 131.71 195.57Z" fill="#EAB9AB"/>
<path d="M238.05 227.71C238.17 225.64 236.93 223.9 236.23 222.17C233.94 216.58 234.38 211 235.28 205.35C235.64 203.09 235.49 200.72 236.57 198.57C236.86 197.99 237.1 197.59 237.73 197.47C243.36 205.74 248.13 214.47 251.72 223.82C251.87 224.2 252.03 224.63 251.99 225.02C251.84 226.75 246.52 230.51 244.85 230.06C242.53 229.42 240.18 228.88 238.04 227.71H238.05Z" fill="#EAB9AB"/>
<path d="M281.58 196.98C283.67 194.85 286.31 193.49 288.9 192.22C296.83 188.36 303.77 183.22 309.94 176.97C312.19 174.69 313.38 171.83 314.52 168.93C314.9 168.85 315.28 168.78 315.66 168.7C316.04 169.14 316.33 168.98 316.58 168.55C317.77 167.84 319.1 168 320.39 167.93C321 168.03 321.63 168.24 322.07 167.56C322.72 167.13 323.45 167.18 324.18 167.23C324.56 167.63 324.84 167.48 325.07 167.06C326.93 166.49 326.24 167.97 326.18 168.61C325.71 173.53 323.53 177.66 320.11 181.16C318.16 183.16 315.88 184.68 313.27 185.64C302.96 189.42 292.64 193.16 282.32 196.91C282.1 196.99 281.83 196.95 281.58 196.97V196.98Z" fill="#D79B87"/>
<path d="M55.18 169.51C54.71 169.63 54.03 169.71 54.39 170.41C56.18 173.89 57.66 177.54 61.31 179.73C63.63 181.12 65.31 183.34 67.55 184.97C72.03 188.23 76.8 190.93 81.64 193.57C82.53 194.06 83.82 194.27 83.5 195.8C78 194.43 72.86 192.02 67.5 190.23C63.63 188.94 59.8 187.53 56 186.07C48.3 183.13 43.66 177.6 42.11 169.47C41.75 167.56 41.87 166.5 44.37 167.08C47.93 167.91 51.56 168.41 55.16 169.05C55.15 169.2 55.16 169.35 55.18 169.5V169.51Z" fill="#D79B87"/>
<path d="M214.56 82.08C213.78 82.16 213.11 81.81 212.42 81.51C206.94 79.14 201.1 78.37 195.23 78.15C188.74 77.91 182.23 77.92 175.74 78.15C168.71 78.39 161.65 78.73 155.1 81.83C154.67 82.03 154.13 82.01 153.65 82.1C152.17 79.16 152.32 79.15 155.13 78.03C162.54 75.08 170.25 74.45 178.1 74.61C185.83 74.77 193.57 74.2 201.29 75.07C205.19 75.51 208.96 76.49 212.66 77.8C215.84 78.93 215.84 78.94 214.57 82.09L214.56 82.08Z" fill="#E4CDC7"/>
<path d="M275.08 215.97C277.88 211.74 278.68 207.15 277.56 202.22C282.18 200.86 286.97 200.44 291.68 199.55C293.66 199.18 292.9 200.64 292.56 201.41C290.7 205.58 287.95 209.08 284.15 211.64C281.36 213.53 278.53 215.44 275.07 215.97H275.08Z" fill="#D79B87"/>
<path d="M90.15 202.16C90.2 206.15 89.69 210.18 91.86 213.96C92.25 214.63 93.28 215 93.15 215.98C85.15 213.71 79.2 208.97 75.66 201.39C75.38 200.79 74.48 199.25 76.3 199.57C80.93 200.38 85.64 200.77 90.16 202.17L90.15 202.16Z" fill="#D79B87"/>
<path d="M153.56 88.56C154.78 89.67 153.88 90.82 153.36 91.69C152.88 92.5 152.54 93.26 152.6 94.41C150.96 93.57 150.52 92.17 150.19 90.89C149.59 88.52 148.34 86.6 146.44 85.19C143.21 82.78 140.24 81.8 137.62 85.29C136.44 86.86 134.84 88.11 134.49 90.21C134.27 91.54 132.4 91.18 132.12 92.48C129.02 93.47 126.1 94.79 123.69 97.07C122.9 94.19 123.47 92.32 126.19 91.47C131.17 89.91 134.23 86.45 136.85 82.24C139.22 78.44 141.91 78.08 145.66 80.65C148.66 82.7 150.09 85.75 151.16 89.04C151.39 89.73 151.32 90.53 152.02 91.22C153.06 90.65 152.85 89.32 153.54 88.58L153.56 88.56Z" fill="#E4CDC7"/>
<path d="M237.11 92.55C234.78 91.76 233.64 89.72 232.23 87.95C231.77 87.37 231.3 86.87 231.08 86.1C230.18 82.96 227.42 82.03 224.54 83.36C220.49 85.24 218.85 88.85 217.2 92.53C216.89 93.23 216.76 94.09 215.8 93.96C214.92 93.84 214.59 92.94 214.68 92.25C214.83 91 213.31 89.76 214.68 88.54C215.09 89.41 215.5 90.29 216.02 91.38C217.14 90.03 217.13 88.48 217.69 87.17C219.06 83.96 220.87 81.16 224.21 79.69C227.18 78.39 228.99 78.88 230.89 81.48C231.53 82.35 232.12 83.25 232.69 84.16C234.73 87.43 237.46 89.78 241.17 91.06C244.48 92.2 245.2 93.57 244.63 96.59C242.36 94.81 239.54 94.03 237.11 92.54V92.55Z" fill="#E4CDC7"/>
<path d="M123.7 97.06C126.1 94.79 129.03 93.47 132.13 92.47C132.16 97.66 132.37 102.81 134.54 107.7C135.05 108.85 136.56 109.6 136.07 111.19C129.94 108.24 125.45 103.85 123.71 97.06H123.7Z" fill="#D79B87"/>
<path d="M237.11 92.55C239.54 94.04 242.36 94.82 244.63 96.6C243.55 102.44 239.69 106.29 235.19 109.63C234.3 110.29 233.41 111.14 232.16 111.16C234.85 105.92 236.32 100.39 236.11 94.46C236.08 93.66 235.93 92.73 237.12 92.55H237.11Z" fill="#D79B87"/>
<path d="M285.13 173.99C283.28 175.01 281.21 174.75 278.57 175.31C280.23 173.5 281.75 173.08 283.43 173.02C283.63 173.98 284.58 173.65 285.13 174V173.99Z" fill="#D87188"/>
<path d="M267.14 203.89C265.27 205.11 263.12 204.61 260.5 205.43C262.18 203.46 263.84 203.32 265.41 202.99C265.62 204.01 266.57 203.59 267.15 203.89H267.14Z" fill="#D87188"/>
<path d="M84.78 173.02C86.17 173.46 87.89 173.18 89 174.95C86.99 175.08 85.3 174.78 83.68 174.07C84.01 173.68 84.8 173.76 84.78 173.01V173.02Z" fill="#D87188"/>
<path d="M104.17 203.57C105.35 203.48 106.44 203.64 107.35 204.8C106.1 205.26 105.07 205.15 104.08 204.45C104.11 204.15 104.14 203.86 104.17 203.56V203.57Z" fill="#D87188"/>
<path d="M81.56 173.73C80.8 174.17 80.1 174.31 79.62 173.35C80.33 173.15 81 173.16 81.56 173.73Z" fill="#D87188"/>
<path d="M288.62 173.37C288.12 174.29 287.42 174.16 286.67 173.73C287.24 173.18 287.9 173.12 288.62 173.37Z" fill="#D87188"/>
<path d="M64.81 170.82C64.01 171.02 63.17 171.36 62.6 170.38C63.42 170.11 64.17 170.18 64.81 170.82Z" fill="#D87188"/>
<path d="M73.34 172.32C72.68 172.57 72.05 172.73 71.61 171.95C72.28 171.63 72.85 171.81 73.34 172.32Z" fill="#D87188"/>
<path d="M296.63 171.96C296.19 172.72 295.55 172.56 294.9 172.32C295.39 171.8 295.96 171.62 296.63 171.96Z" fill="#D87188"/>
<path d="M76.32 172.81C75.7 173.07 75.11 173.17 74.67 172.5C75.31 172.11 75.84 172.3 76.32 172.81Z" fill="#D87188"/>
<path d="M293.54 172.52C293.1 173.18 292.52 173.06 291.92 172.82C292.38 172.3 292.92 172.14 293.54 172.52Z" fill="#D87188"/>
<path d="M305.13 170.49C304.68 171.22 304.06 171.08 303.41 170.83C303.9 170.29 304.46 170.14 305.13 170.49Z" fill="#D87188"/>
<path d="M322.07 167.56C321.63 168.24 321 168.03 320.39 167.93C320.85 167.38 321.39 167.17 322.07 167.56Z" fill="#D87188"/>
<path d="M270.13 203.44C269.73 204.11 269.24 204.2 268.66 203.67C269.1 203.25 269.59 203.18 270.13 203.44Z" fill="#D87188"/>
<path d="M67.77 171.36C67.34 171.54 66.97 171.51 66.7 171.08C67.18 170.7 67.5 170.93 67.77 171.36Z" fill="#D87188"/>
<path d="M308.11 169.99C307.85 170.46 307.55 170.67 307.15 170.13C307.43 169.83 307.75 169.76 308.11 169.99Z" fill="#D87188"/>
<path d="M84.6 196.19C85.32 195.25 85.51 195.81 85.63 196.55C85.2 196.67 84.85 196.56 84.6 196.19Z" fill="#D79B87"/>
<path d="M61.07 170.14C60.68 170.66 60.37 170.48 60.11 170.02C60.47 169.77 60.78 169.85 61.07 170.14Z" fill="#D87188"/>
<path d="M302.04 171.02C301.73 171.52 301.32 171.51 300.87 171.23C301.21 170.89 301.57 170.64 302.04 171.02Z" fill="#D87188"/>
<path d="M274.09 199.81C274.27 199.12 274.7 199.02 275.29 199.3C274.98 199.69 274.62 199.95 274.09 199.81Z" fill="#D87188"/>
<path d="M58.57 169.67C58.2 170.15 57.92 170.02 57.68 169.55C58.02 169.24 58.32 169.28 58.57 169.67Z" fill="#D87188"/>
<path d="M55.18 169.51C55.16 169.36 55.15 169.21 55.16 169.06C55.66 168.72 56 168.97 56.3 169.37C55.93 169.42 55.55 169.46 55.18 169.51Z" fill="#D87188"/>
<path d="M316.58 168.56C316.33 168.99 316.04 169.15 315.66 168.71C315.93 168.4 316.23 168.32 316.58 168.56Z" fill="#D87188"/>
<path d="M325.07 167.07C324.84 167.48 324.56 167.64 324.18 167.24C324.42 166.88 324.71 166.81 325.07 167.07Z" fill="#D87188"/>
<path d="M75.63 169.56C76.38 168.82 76.54 169.36 76.64 170.02C76.2 170.1 75.83 170 75.63 169.56Z" fill="#D79B87"/>
<path d="M128.8 183.13C128.7 183.01 128.59 182.9 128.49 182.78C128.72 182.72 128.95 182.65 129.18 182.59C129.05 182.77 128.93 182.95 128.8 183.14V183.13Z" fill="#E4CDC7"/>
<path d="M139.15 112.54C139.32 112.39 139.49 112.25 139.66 112.1C139.63 112.42 139.51 112.62 139.15 112.54Z" fill="#D79B87"/>
<path d="M205.26 174.94C200.89 177.67 196.15 178.7 191.01 178.5C186.28 178.32 181.54 178.4 176.8 178.5C168.69 178.68 162.27 175.7 157.89 168.73C152.54 156.7 158.89 147.81 166.88 143.33C170.02 141.57 173.42 140.41 176.97 139.85C185.91 138.46 194.6 139.08 202.58 143.79C212.19 149.47 215.24 161.5 209.46 170.34C208.3 172.11 206.67 173.41 205.25 174.93L205.26 174.94ZM202.24 164.17C203.01 163.61 203.02 162.75 203.11 161.93C203.66 156.88 201.15 153.47 197.03 151.11C191.41 147.9 185.29 147.75 179.09 148.69C174.38 149.4 170.08 151.02 167.06 155C164.7 157.54 164.43 160.62 165.59 163.59C167.06 167.37 170.4 169.17 174.26 169.31C180.99 169.55 187.74 169.55 194.47 169.31C197.88 169.19 201 167.92 202.23 164.17H202.24Z" fill="#371F1C"/>
<path d="M209.19 133.18C210.1 133.18 211.03 133.26 211.93 133.16C213.29 133.01 214.04 133.46 214.46 134.85C215.1 136.98 216.67 138.09 218.93 138.12C221.26 138.15 223.07 137.18 223.74 134.94C224.21 133.37 225.07 133.09 226.47 133.16C228.21 133.24 229.97 133.27 231.7 133.15C233.45 133.03 233.81 133.79 233.68 135.36C233.25 140.75 229.04 145.48 223.03 147.18C215.6 149.28 207.89 145.65 205.38 138.86C203.54 133.89 204.02 133.18 209.18 133.17L209.19 133.18Z" fill="#371F1C"/>
<path d="M144.65 147.35C139.4 145.47 135.75 142.1 134.69 136.42C134.14 133.43 134.39 133.2 137.43 133.16C138.66 133.15 139.9 133.06 141.13 133C142.91 133.05 144.1 133.53 144.68 135.6C145.16 137.33 146.92 138.12 148.86 138.14C150.98 138.16 152.83 137.39 153.46 135.42C154.12 133.35 155.3 132.99 157.14 133.16C158.46 133.28 159.8 133.2 161.13 133.21C163.77 133.23 164.07 133.62 163.53 136.3C162.26 142.52 156.98 147.18 150.62 147.55C148.64 147.66 146.64 147.43 144.66 147.36L144.65 147.35Z" fill="#371F1C"/>
<path d="M226.42 161.43C223.74 162.42 221.67 160.65 219.55 159.59C216.88 158.26 216.98 155.89 219.47 154.13C222.69 151.86 226.26 152.3 229.77 152.98C231.11 153.24 232.37 154.04 233.57 154.77C235.62 156.01 235.75 157.69 233.78 159.06C231.62 160.56 229.44 162.3 226.42 161.43Z" fill="#E4CDC7"/>
<path d="M148.1 160.03C144.12 161.71 140.13 161.46 136.15 160.03C136.09 159.38 135.75 159.05 135.07 159.12C134.75 158.95 134.42 158.77 134.1 158.6C134.12 158.15 134.04 157.76 133.58 157.56C133.67 155.03 136.21 152.75 139.16 152.6C140.48 152.53 141.81 152.6 143.13 152.6C143.46 153.08 143.8 153.09 144.13 152.6C144.63 152.6 145.13 152.6 145.64 152.6C146.69 153.57 148.27 153.38 149.33 154.47C151.19 156.38 151.19 157.43 148.95 158.91C148.51 159.2 148.16 159.49 148.11 160.04L148.1 160.03Z" fill="#E4CDC7"/>
<path d="M135.07 159.12C135.75 159.05 136.08 159.38 136.15 160.03C135.5 160.07 135.17 159.74 135.07 159.12Z" fill="#EAB9AB"/>
<path d="M133.57 157.55C134.03 157.76 134.11 158.15 134.09 158.59C133.48 158.46 132.86 158.34 133.57 157.55Z" fill="#EAB9AB"/>
<path d="M144.12 152.59C143.79 153.08 143.45 153.07 143.12 152.59C143.45 152.05 143.79 152.05 144.12 152.59Z" fill="#EAB9AB"/>
<path d="M202.23 164.17C200.99 167.92 197.87 169.18 194.47 169.31C187.74 169.56 180.99 169.55 174.26 169.31C170.4 169.17 167.06 167.37 165.59 163.59C164.43 160.62 164.7 157.54 167.06 155C167.6 155.74 168.41 155.45 169.12 155.53C169.21 158.15 170.08 160.34 172.48 161.7C172.93 163.68 173.05 165.93 175.33 166.79C177.22 167.5 177.73 165.54 178.78 164.65C182.33 164.93 185.87 163.51 189.43 164.5C191.94 167.81 192.84 167.82 195.17 164.55C197.32 164.37 199.47 164.19 201.62 164.01C201.82 164.06 202.02 164.11 202.22 164.17H202.23Z" fill="#D79B87"/>
<path d="M169.13 155.53C168.42 155.46 167.61 155.75 167.07 155C170.09 151.02 174.39 149.4 179.1 148.69C185.3 147.75 191.42 147.9 197.04 151.11C201.16 153.46 203.67 156.87 203.12 161.93C203.03 162.76 203.02 163.61 202.25 164.17C202.05 164.12 201.85 164.07 201.65 164.01C201.33 162.43 202.56 161 201.65 159.21C199.48 154.92 196.41 152.21 191.57 151.23C186.25 150.15 180.99 149.81 175.7 151.08C173 151.73 170.8 153.28 169.14 155.53H169.13Z" fill="#E4CDC7"/>
<path d="M169.13 155.53C170.8 153.28 173 151.73 175.69 151.08C180.98 149.81 186.24 150.15 191.56 151.23C196.39 152.21 199.47 154.92 201.64 159.21C202.55 161 201.32 162.43 201.64 164.01C199.49 164.19 197.34 164.37 195.19 164.55C195.67 162.42 195.94 160.29 194.99 158.21C194.45 157.02 193.66 155.97 192.26 155.98C190.97 155.99 190.24 157.05 189.74 158.13C188.79 160.2 189.13 162.36 189.44 164.5C185.88 163.51 182.35 164.92 178.79 164.65C179.12 162.27 179.55 159.86 178.2 157.64C176.89 155.47 174.83 155.49 173.53 157.65C172.79 158.89 172.65 160.3 172.49 161.7C170.09 160.34 169.22 158.15 169.13 155.53Z" fill="#EAB9AB"/>
<path d="M172.49 161.7C172.65 160.3 172.79 158.9 173.53 157.65C174.83 155.49 176.88 155.47 178.2 157.64C179.54 159.86 179.12 162.27 178.79 164.65C177.74 165.54 177.24 167.5 175.34 166.79C173.06 165.93 172.94 163.68 172.49 161.7Z" fill="#371F1C"/>
<path d="M189.43 164.5C189.12 162.36 188.78 160.19 189.73 158.13C190.22 157.05 190.96 155.99 192.25 155.98C193.64 155.97 194.44 157.02 194.98 158.21C195.93 160.29 195.66 162.42 195.18 164.55C192.85 167.82 191.95 167.81 189.44 164.5H189.43Z" fill="#371F1C"/>
</g>
<defs>
<clipPath id="clip0_2_216">
<rect width="340.2" height="245.03" fill="white" transform="translate(14 17)"/>
</clipPath>
</defs>
</svg>
